<?xml version="1.0" encoding="UTF-8"?>
<!-- Generated by Pixelmator Pro 3.6.13 -->
<svg width="512" height="512" viewBox="0 0 512 512" xmlns="http://www.w3.org/2000/svg">
    <g id="Group-copy">
        <g id="Group">
            <path id="Path" fill="#ffffff" stroke="none" d="M 394.295349 147.052643 L 383.631836 142.788055 C 333.51474 255.554993 134.140671 186.998138 122.143967 220.544708 C 120.144188 243.204926 231.02179 224.853485 310.28833 228.694427 C 334.460419 229.865021 346.581573 248.11203 336.317627 277.853821 L 356.534363 277.916077 C 379.855133 205.215057 454.280823 242.317474 457.390991 218.324066 C 452.281036 202.548645 371.855988 218.324066 394.295349 147.052643 Z"/>
            <path id="path1" fill="#f4811f" stroke="none" d="M 342.042114 266.645813 C 345.24057 255.98233 344.174438 245.318817 338.843689 238.919891 C 333.510895 232.520996 326.045868 228.256409 316.448517 227.190247 L 130.89624 225.055939 C 129.830078 225.055939 128.763947 223.989777 127.697784 223.989777 C 126.631622 222.923645 126.631622 221.857483 127.697784 220.791321 C 128.763947 218.659027 129.830078 217.590881 131.962387 217.590881 L 318.580811 215.458557 C 340.975983 214.392426 364.437286 196.263855 372.966492 174.936829 L 383.631989 147.210907 C 383.631989 146.142761 384.698151 145.076599 383.631989 144.010437 C 371.90036 89.624756 322.847443 49.101013 265.261261 49.101013 C 211.941727 49.101013 166.087219 83.22583 150.090958 131.21463 C 139.427444 123.749573 126.631622 119.482971 111.701515 120.551147 C 86.107887 122.683441 65.847031 144.010437 62.646568 169.604065 C 61.580414 176.002991 62.646568 182.401886 63.714729 188.798798 C 22.124832 189.86496 -12 223.989777 -12 266.645813 C -12 270.910431 -12 274.110901 -10.933849 278.375488 C -10.933849 280.509796 -8.801552 281.575928 -7.733394 281.575928 L 334.577057 281.575928 C 336.709381 281.575928 338.843689 280.509796 338.843689 278.375488 L 342.042114 266.645813 Z"/>
            <path id="path2" fill="#faad3f" stroke="none" d="M 400.693665 145.986084 L 395.36087 145.986084 C 394.294769 145.986084 393.228638 147.052277 392.162476 148.118378 L 384.697418 173.712036 C 381.498901 184.375549 382.565125 195.041046 387.897797 201.437958 C 393.228638 207.836853 400.693665 212.10144 410.291016 213.169617 L 449.748596 215.30191 C 450.814758 215.30191 451.88092 216.368042 452.946991 216.368042 C 454.013184 217.434204 454.013184 218.500366 452.946991 219.566528 C 451.88092 221.700806 450.814758 222.766968 448.680389 222.766968 L 408.158722 224.899261 C 385.763519 225.965424 362.304199 244.093994 353.77301 265.421021 L 351.638702 275.020386 C 350.57254 276.086517 351.638702 278.218811 353.77301 278.218811 L 494.536926 278.218811 C 496.66925 278.218811 497.735382 277.152679 497.735382 275.020386 C 499.867676 266.489166 502 256.891785 502 247.292419 C 502 191.840576 456.145508 145.986084 400.693665 145.986084"/>
        </g>
    </g>
    <path id="path3" fill="#5c626b" stroke="none" d="M 251.199997 376.299988 L 232.199997 395.299988 L 196.399994 359.5 C 191.199997 354.299988 191.199997 345.799988 196.399994 340.5 C 201.600006 335.299988 210.100006 335.299988 215.399994 340.5 L 251.199997 376.299988 Z"/>
    <path id="path4" fill="#535860" stroke="none" d="M 202.399994 337 C 200.199997 337.600006 198.100006 338.700012 196.399994 340.5 C 191.199997 345.700012 191.199997 354.200012 196.399994 359.5 L 232.199997 395.299988 L 241.699997 385.799988 L 205.899994 350 C 202.300003 346.5 201.199997 341.5 202.399994 337 Z"/>
    <path id="path5" fill="#dfe0e0" stroke="none" d="M 232.100006 395.299988 L 251.100006 376.299988 L 302.899994 428.100006 L 283.899994 447.100006 L 232.100006 395.299988 Z"/>
    <path id="path6" fill="#c9caca" stroke="none" d="M 232.100006 395.299988 L 241.600006 385.799988 L 293.399994 437.600006 L 283.899994 447.100006 L 232.100006 395.299988 Z"/>
    <path id="path7" fill="#fbe067" stroke="none" d="M 267.799988 376.399994 L 232.199997 412 C 231.100006 413.100006 229.300003 413.100006 228.199997 412 L 215.5 399.299988 C 214.399994 398.200012 214.399994 396.399994 215.5 395.299988 L 251.100006 359.700012 C 252.199997 358.600006 254 358.600006 255.100006 359.700012 L 267.799988 372.399994 C 268.799988 373.5 268.799988 375.299988 267.799988 376.399994 Z"/>
    <path id="path8" fill="#e7ce5f" stroke="none" d="M 241.399994 398.899994 L 228.699997 386.200012 C 227.600006 385.100006 227.600006 383.299988 228.699997 382.200012 L 215.600006 395.299988 C 214.5 396.399994 214.5 398.200012 215.600006 399.299988 L 228.300003 412 C 229.399994 413.100006 231.199997 413.100006 232.300003 412 L 245.399994 398.899994 C 244.199997 399.899994 242.399994 399.899994 241.399994 398.899994 Z"/>
    <path id="path9" fill="#5c626b" stroke="none" d="M 424.299988 376.299988 L 443.299988 395.299988 L 479.100006 359.5 C 484.299988 354.299988 484.299988 345.799988 479.100006 340.5 C 473.899994 335.299988 465.399994 335.299988 460.100006 340.5 L 424.299988 376.299988 Z"/>
    <path id="path10" fill="#535860" stroke="none" d="M 473 337 C 475.200012 337.600006 477.299988 338.700012 479 340.5 C 484.200012 345.700012 484.200012 354.200012 479 359.5 L 443.200012 395.299988 L 433.700012 385.799988 L 469.5 350 C 473.100006 346.5 474.200012 341.5 473 337 Z"/>
    <path id="path11" fill="#dfe0e0" stroke="none" d="M 391.5 447.100006 L 372.600006 428.100006 L 424.399994 376.299988 L 443.399994 395.299988 L 391.5 447.100006 Z"/>
    <path id="path12" fill="#c9caca" stroke="none" d="M 382 437.600006 L 433.799988 385.799988 L 443.299988 395.299988 L 391.5 447.100006 L 382 437.600006 Z"/>
    <path id="path13" fill="#fbe067" stroke="none" d="M 407.700012 376.399994 L 443.299988 412 C 444.399994 413.100006 446.200012 413.100006 447.299988 412 L 460 399.299988 C 461.100006 398.200012 461.100006 396.399994 460 395.299988 L 424.399994 359.700012 C 423.299988 358.600006 421.5 358.600006 420.399994 359.700012 L 407.700012 372.399994 C 406.600006 373.5 406.600006 375.299988 407.700012 376.399994 Z"/>
    <path id="path14" fill="#e7ce5f" stroke="none" d="M 434.100006 398.899994 L 446.799988 386.200012 C 447.899994 385.100006 447.899994 383.299988 446.799988 382.200012 L 459.899994 395.299988 C 461 396.399994 461 398.200012 459.899994 399.299988 L 447.200012 412 C 446.100006 413.100006 444.299988 413.100006 443.200012 412 L 430.100006 398.899994 C 431.299988 399.899994 433 399.899994 434.100006 398.899994 Z"/>
    <path id="path15" fill="#494f57" stroke="none" d="M 235.199997 486.5 C 235.199997 429.899994 281.100006 384 337.700012 384 C 394.299988 384 440.200012 429.899994 440.200012 486.5 L 235.199997 486.5 Z"/>
    <path id="path16" fill="#535860" stroke="none" d="M 440.200012 486.5 L 271.600006 486.5 L 369.200012 388.899994 C 410.399994 402.200012 440.200012 440.799988 440.200012 486.5 Z"/>
    <path id="path17" fill="#cb556a" stroke="none" d="M 305.700012 486.5 L 271.600006 486.5 L 369.200012 388.899994 C 377.399994 391.600006 385.299988 395.299988 392.399994 399.700012 L 305.700012 486.5 Z"/>
    <path id="path18" fill="#5c626b" stroke="none" d="M 235.199997 486.5 L 403.799988 486.5 L 306.200012 388.899994 C 265.100006 402.200012 235.199997 440.799988 235.199997 486.5 Z"/>
    <path id="path19" fill="#535860" stroke="none" d="M 347.399994 384.5 C 344.299988 384.200012 341 384 337.799988 384 C 281.200012 384 235.300003 429.899994 235.300003 486.5 L 254.600006 486.5 C 254.399994 433.100006 295.299988 389.299988 347.399994 384.5 Z"/>
    <path id="path20" fill="#e15f76" stroke="none" d="M 369.700012 486.5 L 403.799988 486.5 L 306.200012 388.899994 C 298 391.600006 290.100006 395.299988 283 399.700012 L 369.700012 486.5 Z"/>
    <path id="path21" fill="#cb556a" stroke="none" d="M 311.799988 394.399994 L 306.200012 388.799988 C 298 391.5 290.100006 395.200012 283 399.600006 L 291.100006 407.700012 C 297.5 402.600006 304.399994 398.100006 311.799988 394.399994 Z"/>
    <path id="path22" fill="#5c626b" stroke="none" d="M 447.899994 290.700012 C 447.899994 351.5 398.600006 400.799988 337.799988 400.799988 C 277 400.799988 227.699997 351.5 227.699997 290.700012 C 227.699997 229.899994 277 180.600006 337.799988 180.600006 C 398.600006 180.600006 447.899994 229.799988 447.899994 290.700012 Z"/>
    <path id="path23" fill="#535860" stroke="none" d="M 246.100006 290.700012 C 246.100006 233 290.5 185.600006 347 181 C 344 180.700012 340.899994 180.600006 337.799988 180.600006 C 277 180.600006 227.699997 229.899994 227.699997 290.700012 C 227.699997 351.5 277 400.799988 337.799988 400.799988 C 340.899994 400.799988 344 400.700012 347 400.399994 C 290.5 395.700012 246.100006 348.399994 246.100006 290.700012 Z"/>
    <path id="path24" fill="#535860" stroke="none" d="M 227.600006 290.700012 C 227.600006 293.399994 227.699997 296.100006 227.899994 298.700012 C 228.300003 298.700012 228.800003 298.799988 229.199997 298.799988 L 446.299988 298.799988 C 446.700012 298.799988 447.200012 298.799988 447.600006 298.700012 C 447.799988 296 447.899994 293.399994 447.899994 290.700012 C 447.899994 282.299988 447 274.200012 445.200012 266.299988 L 230.300003 266.299988 C 228.5 274.100006 227.600006 282.299988 227.600006 290.700012 Z"/>
    <path id="path25" fill="#f7c2ad" stroke="none" d="M 378.100006 337.5 L 364.399994 331.799988 C 347.399994 324.700012 328.200012 324.700012 311.200012 331.799988 L 297.5 337.5 C 281.100006 344.299988 263 332.299988 263 314.5 C 263 300.700012 274.200012 289.5 288 289.5 L 387.899994 289.5 C 401.700012 289.5 412.899994 300.700012 412.899994 314.5 C 412.600006 332.200012 394.5 344.399994 378.100006 337.5 Z"/>
    <path id="path26" fill="#e15f76" stroke="none" d="M 229.100006 289.5 L 446.200012 289.5 C 450.5 289.5 453.899994 285.899994 453.600006 281.600006 C 452.600006 269.600006 449.700012 258.100006 445.200012 247.5 C 444.100006 244.799988 441.399994 243 438.399994 243 L 237 243 C 234.100006 243 231.399994 244.700012 230.199997 247.5 C 225.600006 258.100006 222.800003 269.600006 221.800003 281.600006 C 221.5 285.799988 224.800003 289.5 229.100006 289.5 Z"/>
    <path id="path27" fill="#cb556a" stroke="none" d="M 240.300003 281.600006 C 241.300003 269.600006 244.199997 258.100006 248.699997 247.5 C 249.800003 244.799988 252.5 243 255.5 243 L 237 243 C 234.100006 243 231.399994 244.700012 230.199997 247.5 C 225.600006 258.100006 222.800003 269.600006 221.800003 281.600006 C 221.5 285.899994 224.899994 289.5 229.199997 289.5 L 247.699997 289.5 C 243.300003 289.5 239.899994 285.799988 240.300003 281.600006 Z"/>
    <g id="g1">
        <path id="path28" fill="#494f57" stroke="none" d="M 208.5 352.700012 L 199 362.200012 L 205.600006 368.799988 L 215.100006 359.299988 C 216.899994 357.5 216.899994 354.5 215.100006 352.700012 C 213.300003 350.899994 210.300003 350.799988 208.5 352.700012 Z"/>
        <path id="path29" fill="#494f57" stroke="none" d="M 219.399994 363.5 L 209.899994 373 L 216.5 379.600006 L 225.899994 370.100006 C 227.699997 368.299988 227.699997 365.299988 225.899994 363.5 C 224.100006 361.700012 221.199997 361.700012 219.399994 363.5 Z"/>
        <path id="path30" fill="#494f57" stroke="none" d="M 466.899994 352.700012 C 465.100006 350.899994 462.100006 350.899994 460.299988 352.700012 C 458.5 354.5 458.5 357.5 460.299988 359.299988 L 469.799988 368.799988 L 476.399994 362.200012 L 466.899994 352.700012 Z"/>
        <path id="path31" fill="#494f57" stroke="none" d="M 456 363.5 C 454.200012 361.700012 451.200012 361.700012 449.399994 363.5 C 447.600006 365.299988 447.600006 368.299988 449.399994 370.100006 L 458.899994 379.600006 L 465.5 373 L 456 363.5 Z"/>
        <path id="path32" fill="#494f57" stroke="none" d="M 377 317.399994 C 374.5 317.399994 372.5 315.399994 372.5 312.899994 L 372.5 305.899994 C 372.5 303.399994 374.5 301.399994 377 301.399994 C 379.5 301.399994 381.5 303.399994 381.5 305.899994 L 381.5 312.899994 C 381.399994 315.399994 379.399994 317.399994 377 317.399994 Z"/>
        <path id="path33" fill="#494f57" stroke="none" d="M 298.5 317.399994 C 296 317.399994 294 315.399994 294 312.899994 L 294 305.899994 C 294 303.399994 296 301.399994 298.5 301.399994 C 301 301.399994 303 303.399994 303 305.899994 L 303 312.899994 C 303 315.399994 301 317.399994 298.5 317.399994 Z"/>
    </g>
</svg>
